<svg xmlns="http://www.w3.org/2000/svg" style="display:none;">

    <!-- Crayon Consulting, full logo -->
    <svg 
        id="logo-full" 
        viewBox="0 0 200 57"
        style="--icon-color: rgb(var(--color-red-500, 255, 106, 76)); --text-color: rgb(var(--color-forest-green-700, 4, 36, 45));"
    >
        <path
            d="M6.06516 34.3275C9.92899 38.1922 15.0058 40.1236 20.081 40.1236C25.1562 40.1236 30.2331 38.1913 34.0977 34.3275L52.218 16.2064L47.6842 11.6725L29.5639 29.7937C24.335 35.0226 15.8271 35.0226 10.5982 29.7937L10.33 29.5255C5.10109 24.2966 5.10109 15.7886 10.33 10.5597L10.5597 10.33C15.7886 5.10109 24.2966 5.10109 29.5255 10.33L31.0869 11.8914L35.6207 7.35756L34.0593 5.79616C26.3308 -1.93233 13.7552 -1.93233 6.02673 5.79616L5.79699 6.0259C-1.9315 13.7544 -1.9315 26.33 5.79699 34.0585L6.06516 34.3267V34.3275Z"
            fill="var(--icon-color)" />
        <path
            d="M68.8705 5.79616C65.0067 1.93233 59.9307 0 54.8546 0C49.7786 0 44.7026 1.93233 40.8379 5.79616L22.7176 23.9173L27.2515 28.4511L45.3718 10.3308C50.6007 5.10192 59.1086 5.10192 64.3375 10.3308L64.6057 10.599C69.8346 15.8279 69.8346 24.3358 64.6057 29.5647L64.3759 29.7945C59.147 35.0234 50.6391 35.0234 45.4102 29.7945L43.8488 28.2331L39.3149 32.7669L40.8764 34.3283C48.6048 42.0568 61.1804 42.0568 68.9089 34.3283L69.1387 34.0986C76.8672 26.3701 76.8672 13.7945 69.1387 6.066L68.8705 5.79783V5.79616Z"
            fill="var(--icon-color)" />
        <path
            d="M162.19 15.1855L151.794 40.0635H148.143L150.982 33.0393L143.628 15.1855H147.324L152.87 28.7135L158.493 15.1855H162.19Z"
            fill="currentColor" />
        <path
            d="M84.553 20.0618C84.553 12.3935 90.6483 6.17962 98.3166 6.17962C102.485 6.17962 106.103 7.94987 108.502 10.7811L105.906 12.9833C104.097 10.8596 101.345 9.48287 98.3166 9.48287C92.6149 9.48287 88.1312 14.2414 88.1312 20.061C88.1312 25.8805 92.614 30.6391 98.3166 30.6391C101.345 30.6391 104.097 29.2632 105.906 27.1395L108.502 29.3417C106.104 32.1729 102.485 33.9424 98.3166 33.9424C90.6483 33.9424 84.553 27.7293 84.553 20.061"
            fill="currentColor" />
        <path
            d="M122.717 15.5004L122.166 18.7251C121.183 18.2531 120.2 18.0961 119.492 18.0961C115.835 18.0961 114.38 21.9891 114.38 26.8262V33.5505H110.92V15.1855H114.38V19.3542C115.324 16.1295 117.094 14.7928 119.531 14.7928C120.829 14.7928 122.166 15.147 122.717 15.5013"
            fill="currentColor" />
        <path
            d="M138.369 24.3091C138.369 20.3375 135.145 18.0175 132.117 18.0175C128.774 18.0175 126.1 20.6132 126.1 24.3091C126.1 28.005 128.774 30.7193 132.117 30.7193C135.459 30.7193 138.369 28.2414 138.369 24.3091ZM141.791 15.1855V33.5505H138.37V30.6408C137.151 32.7644 134.477 33.944 131.842 33.944C126.809 33.944 122.64 30.1295 122.64 24.3492C122.64 18.5689 126.769 14.7937 131.803 14.7937C134.556 14.7937 137.151 15.8947 138.37 18.0576V15.1871H141.791V15.1855Z"
            fill="currentColor" />
        <path
            d="M177.739 24.3091C177.739 20.5338 174.907 18.0175 171.525 18.0175C168.144 18.0175 165.391 20.5347 165.391 24.3091C165.391 28.0835 168.183 30.7193 171.525 30.7193C174.868 30.7193 177.739 28.1236 177.739 24.3091ZM161.93 24.3091C161.93 18.4887 166.295 14.792 171.525 14.792C176.754 14.792 181.16 18.4887 181.16 24.3091C181.16 30.1295 176.755 33.9432 171.525 33.9432C166.294 33.9432 161.93 30.1287 161.93 24.3091Z"
           fill="currentColor" />
        <path
            d="M200 22.9323V33.5497H196.579V23.1287C196.579 20.061 194.692 18.1738 192.135 18.1738C189.579 18.1738 186.512 19.6291 186.512 23.6007V33.5497H183.091V15.1846H186.512V17.9766C187.613 15.7352 190.601 14.7911 192.607 14.7911C197.169 14.7911 200.04 17.7803 200.001 22.9315"
            fill="currentColor" />
        <path
            d="M111.587 51.2715C111.587 48.5522 113.749 46.279 116.468 46.279C117.987 46.279 119.312 46.9482 120.164 48.0084L119.104 48.8588C118.49 48.1061 117.541 47.6174 116.482 47.6174C114.53 47.6174 113.023 49.2907 113.023 51.2707C113.023 53.2506 114.515 54.8822 116.482 54.8822C117.541 54.8822 118.49 54.3943 119.104 53.6416L120.164 54.4921C119.312 55.5522 117.988 56.2214 116.468 56.2214C113.749 56.2214 111.587 53.99 111.587 51.2707V51.2715Z"
            fill="currentColor" />
        <path
            d="M121.476 51.2715C121.476 48.538 123.596 46.279 126.329 46.279C129.063 46.279 131.21 48.538 131.21 51.2715C131.21 54.005 129.076 56.2222 126.329 56.2222C123.582 56.2222 121.476 53.9908 121.476 51.2715ZM129.774 51.2715C129.774 49.2916 128.296 47.6182 126.329 47.6182C124.363 47.6182 122.912 49.2916 122.912 51.2715C122.912 53.2515 124.377 54.883 126.329 54.883C128.282 54.883 129.774 53.2373 129.774 51.2715Z"
            fill="currentColor" />
        <path
            d="M138.834 46.4469H140.27V56.0551H138.917L134.72 49.0551V56.0551H133.283V46.4469H134.678L138.833 53.3918V46.4469H138.834Z"
            fill="currentColor" />
        <path
            d="M142.893 53.2941H144.315C144.343 54.117 145.109 54.9114 146.309 54.9114C147.509 54.9114 148.122 54.1863 148.122 53.3918C148.122 52.5414 147.355 52.137 146.574 51.9273L145.347 51.6207C143.297 51.1053 142.962 49.8914 142.962 49.0969C142.962 47.4094 144.454 46.2799 146.155 46.2799C147.856 46.2799 149.237 47.3676 149.237 49.1245H147.815C147.815 48.218 147.104 47.5906 146.114 47.5906C145.208 47.5906 144.399 48.1905 144.399 49.0693C144.399 49.3759 144.497 50.0033 145.71 50.3241L146.923 50.6592C148.541 51.0919 149.559 51.914 149.559 53.3225C149.559 54.9265 148.248 56.2231 146.31 56.2231C144.26 56.2231 142.893 54.8421 142.893 53.2949V53.2941Z"
            fill="currentColor" />
        <path
            d="M151.916 52.7502V46.4469H153.353V52.736C153.353 54.2005 154.328 54.8555 155.458 54.8555C156.587 54.8555 157.577 54.2005 157.577 52.736V46.4469H159.013V52.7502C159.013 54.9532 157.368 56.2222 155.457 56.2222C153.546 56.2222 151.915 54.9532 151.915 52.7502H151.916Z"
            fill="currentColor" />
        <path d="M163.566 54.7435H167.429V56.0543H162.129V46.4461H163.566V54.7435Z" fill="currentColor" />
        <path d="M174.484 46.4469V47.7577H171.625V56.0551H170.189V47.7577H167.33V46.4469H174.484Z"
            fill="currentColor" />
        <path d="M176.617 56.0551V46.4469H178.053V56.0551H176.617Z" fill="currentColor" />
        <path
            d="M186.826 46.4469H188.262V56.0551H186.91L182.712 49.0551V56.0551H181.276V46.4469H182.67L186.826 53.3918V46.4469Z"
            fill="currentColor" />
        <path
            d="M190.56 51.2715C190.56 48.538 192.693 46.279 195.426 46.279C196.737 46.279 197.908 46.7945 198.745 47.604L197.741 48.5246C197.141 47.9666 196.319 47.604 195.426 47.604C193.488 47.604 191.996 49.2916 191.996 51.2715C191.996 53.2515 193.488 54.8972 195.44 54.8972C197.058 54.8972 198.424 53.8237 198.424 52.4152H195.663V51.188H200C200 54.6048 198.173 56.2222 195.454 56.2222C192.736 56.2222 190.56 53.9908 190.56 51.2715Z"
            fill="currentColor" />
    </svg>

     <!-- Crayon Consulting, only icon -->
    <svg 
        id="logo-simple" 
        viewBox="0 0 75 41"
        style="--icon-color: rgb(var(--color-red-500, 255, 106, 76));">
        <path
            d="M6.06516 34.3275C9.92899 38.1922 15.0058 40.1236 20.081 40.1236C25.1562 40.1236 30.2331 38.1913 34.0977 34.3275L52.218 16.2064L47.6842 11.6725L29.5639 29.7937C24.335 35.0226 15.8271 35.0226 10.5982 29.7937L10.33 29.5255C5.10109 24.2966 5.10109 15.7886 10.33 10.5597L10.5597 10.33C15.7886 5.10109 24.2966 5.10109 29.5255 10.33L31.0869 11.8914L35.6207 7.35756L34.0593 5.79616C26.3308 -1.93233 13.7552 -1.93233 6.02673 5.79616L5.79699 6.0259C-1.9315 13.7544 -1.9315 26.33 5.79699 34.0585L6.06516 34.3267V34.3275Z"
            fill="var(--icon-color)" />
        <path
            d="M68.8705 5.79616C65.0067 1.93233 59.9307 0 54.8546 0C49.7786 0 44.7026 1.93233 40.8379 5.79616L22.7176 23.9173L27.2515 28.4511L45.3718 10.3308C50.6007 5.10192 59.1086 5.10192 64.3375 10.3308L64.6057 10.599C69.8346 15.8279 69.8346 24.3358 64.6057 29.5647L64.3759 29.7945C59.147 35.0234 50.6391 35.0234 45.4102 29.7945L43.8488 28.2331L39.3149 32.7669L40.8764 34.3283C48.6048 42.0568 61.1804 42.0568 68.9089 34.3283L69.1387 34.0986C76.8672 26.3701 76.8672 13.7945 69.1387 6.066L68.8705 5.79783V5.79616Z"
            fill="var(--icon-color)" />
    </svg>

    <!-- Icon -->
    <symbol viewBox="0 0 813 314" fill="none" id="logo-logo">
        <path d="M707.9 209.6C707.1 205.7 706.5 202 706.5 196.5V135.6C706.5 111.5 684.8 101.7 658.9 101.7C622.1 101.7 610.6 122.4 609.6 138.5H637.8C638.4 129.1 645.6 123 657.6 123C670.5 123 678.3 129.1 678.3 141.6V146.5L651 148C609.9 150.5 606.2 169.1 606.2 180.3C606.2 204.2 626.4 212.4 643 212.4C655.3 212.4 669.2 208.7 679 195.8H679.4V209.5H707.9V209.6ZM678.2 173.4C678.2 186.1 663.3 191.2 654.1 191.2C644.3 191.2 635.7 188.3 635.7 178.9C635.7 171.3 640.2 167.2 653.7 166L678.2 163.8V173.4Z" fill="white"/>
        <path d="M579.3 74.2H549.9V104.5H541.7H536.4V127H541.7H549.9V183.4C549.9 206.1 561.6 210.8 580.8 210.8C585.5 210.8 590.2 210.2 594.9 209.6V186.5C593.1 186.9 591.4 187.1 589 187.1C581.4 187.1 579.4 184.9 579.4 180.2V127H594.9V104.5H579.4V74.2H579.3Z" fill="white"/>
        <path d="M477.2 101.6C445.5 101.6 423.4 123.3 423.4 157.2C423.4 190.7 445.5 212.4 477.2 212.4C499.4 212.4 517.1 203.4 525.7 186.1C526.7 184.1 527.6 182 528.3 179.7L525.7 179.5L499.7 177.5C495.6 185.7 487.6 190 478.6 190C462.8 190 455.3 177.7 454.1 165.5H525.7H531V157.3C531 147.4 529.1 138.6 525.7 131.1C517.4 112.5 499.7 101.6 477.2 101.6ZM454.1 146.6C455.7 134.7 463.3 124.1 478.6 124.1C492.7 124.1 500.5 136.4 501.5 146.6H454.1Z" fill="white"/>
        <path d="M378.4 101.6C369.6 101.6 358 104.1 347.5 118C340.1 103.5 326.2 101.6 319.3 101.6C307.2 101.6 297 104.3 287.6 118.2H287.2V104.5H259V209.6H288.4V145.8C288.4 135.6 292.9 125.4 305 125.4C317.3 125.4 321 133.8 321 144.8V209.6H350.4V144.2C350.4 135.8 355.9 125.4 367.2 125.4C378.4 125.4 382.9 133.8 382.9 142V209.7H412.3V134.2C412.3 112 396.4 101.6 378.4 101.6Z" fill="white"/>
        <path d="M207.9 101.6C196 101.6 185.6 105.5 176.8 118.2H176.4V104.5H148.2V209.6H177.7V149.9C177.7 135.6 185.1 125.4 196.9 125.4C206.1 125.4 215.3 130.5 215.3 145.6V209.6H244.7V138.2C244.7 118 233.3 101.6 207.9 101.6Z" fill="white"/>
        <path d="M133.9 104.5H104.5V209.6H133.9V104.5Z" fill="white"/>
        <path d="M119.2 54.6C110.1 54.6 103.1 62.2 102.2 70.1V73.8C103.2 81.4 110.2 89 119.2 89C128.6 89 136.4 80.6 136.4 71.6C136.4 62.1 128 54.6 119.2 54.6Z" fill="#75DFBC"/>
        <rect x="0.5" y="2.5" width="812" height="311" stroke="transparent" stroke-dasharray="4 4"/>
    </symbol>
    <!-- Icon with dark background -->
    <symbol viewBox="0 0 259 100" fill="none" id="logo-fill-dark">
        <path d="M225.446 66.7516C225.191 65.5096 225 64.3312 225 62.5796V43.1847C225 35.5096 218.089 32.3885 209.841 32.3885C198.121 32.3885 194.459 38.9809 194.14 44.1083H203.121C203.312 41.1147 205.605 39.172 209.427 39.172C213.535 39.172 216.019 41.1147 216.019 45.0955V46.6561L207.325 47.1338C194.236 47.9299 193.058 53.8535 193.058 57.4204C193.058 65.0318 199.491 67.6433 204.777 67.6433C208.695 67.6433 213.121 66.465 216.242 62.3567H216.37V66.7197H225.446V66.7516ZM215.988 55.2229C215.988 59.2675 211.242 60.8917 208.312 60.8917C205.191 60.8917 202.453 59.9682 202.453 56.9745C202.453 54.5541 203.886 53.2484 208.185 52.8662L215.988 52.1656V55.2229Z" fill="white"/>
        <path d="M184.491 23.6306H175.127V33.2803H172.516H170.828V40.4459H172.516H175.127V58.4076C175.127 65.6369 178.854 67.1338 184.968 67.1338C186.465 67.1338 187.962 66.9427 189.459 66.7516V59.3949C188.885 59.5223 188.344 59.586 187.58 59.586C185.159 59.586 184.522 58.8853 184.522 57.3885V40.4459H189.459V33.2803H184.522V23.6306H184.491Z" fill="white"/>
        <path d="M151.975 32.3567C141.879 32.3567 134.841 39.2675 134.841 50.0637C134.841 60.7325 141.879 67.6433 151.975 67.6433C159.045 67.6433 164.682 64.7771 167.42 59.2675C167.739 58.6306 168.026 57.9618 168.248 57.2293L167.42 57.1656L159.14 56.5287C157.834 59.1401 155.287 60.5096 152.42 60.5096C147.389 60.5096 145 56.5924 144.618 52.707H167.42H169.108V50.0955C169.108 46.9427 168.503 44.1401 167.42 41.7516C164.777 35.828 159.14 32.3567 151.975 32.3567ZM144.618 46.6879C145.127 42.8981 147.548 39.5223 152.42 39.5223C156.911 39.5223 159.395 43.4395 159.713 46.6879H144.618Z" fill="white"/>
        <path d="M120.51 32.3567C117.707 32.3567 114.013 33.1529 110.669 37.5796C108.312 32.9618 103.886 32.3567 101.688 32.3567C97.8347 32.3567 94.5863 33.2166 91.5927 37.6433H91.4653V33.2803H82.4844V66.7516H91.8474V46.4331C91.8474 43.1847 93.2806 39.9363 97.1341 39.9363C101.051 39.9363 102.23 42.6115 102.23 46.1147V66.7516H111.593V45.9236C111.593 43.2484 113.344 39.9363 116.943 39.9363C120.51 39.9363 121.943 42.6115 121.943 45.2229V66.7834H131.306V42.7389C131.306 35.6688 126.242 32.3567 120.51 32.3567Z" fill="white"/>
        <path d="M66.21 32.3567C62.4202 32.3567 59.1081 33.5987 56.3055 37.6433H56.1782V33.2803H47.1973V66.7516H56.5922V47.7389C56.5922 43.1847 58.9489 39.9363 62.7068 39.9363C65.6368 39.9363 68.5667 41.5605 68.5667 46.3694V66.7516H77.9298V44.0127C77.9298 37.5796 74.2992 32.3567 66.21 32.3567Z" fill="white"/>
        <path d="M42.6433 33.2803H33.2803V66.7516H42.6433V33.2803Z" fill="white"/>
        <path d="M37.9619 17.3885C35.0638 17.3885 32.8345 19.8089 32.5479 22.3248V23.5032C32.8663 25.9236 35.0956 28.3439 37.9619 28.3439C40.9555 28.3439 43.4396 25.6688 43.4396 22.8025C43.4396 19.7771 40.7644 17.3885 37.9619 17.3885Z" fill="#75DFBC"/>
    </symbol>
    <!-- Icon with light background -->
    <symbol viewBox="0 0 259 100" fill="none" id="logo-fill-light">
        <path d="M225.446 66.7516C225.191 65.5096 225 64.3312 225 62.5796V43.1847C225 35.5096 218.089 32.3885 209.841 32.3885C198.121 32.3885 194.459 38.9809 194.14 44.1083H203.121C203.312 41.1147 205.605 39.172 209.427 39.172C213.535 39.172 216.019 41.1147 216.019 45.0955V46.6561L207.325 47.1338C194.236 47.9299 193.058 53.8535 193.058 57.4204C193.058 65.0318 199.491 67.6433 204.777 67.6433C208.695 67.6433 213.121 66.465 216.242 62.3567H216.37V66.7197H225.446V66.7516ZM215.988 55.2229C215.988 59.2675 211.242 60.8917 208.312 60.8917C205.191 60.8917 202.453 59.9682 202.453 56.9745C202.453 54.5541 203.886 53.2484 208.185 52.8662L215.988 52.1656V55.2229Z" fill="#141414"/>
        <path d="M184.491 23.6306H175.127V33.2803H172.516H170.828V40.4459H172.516H175.127V58.4076C175.127 65.6369 178.854 67.1338 184.968 67.1338C186.465 67.1338 187.962 66.9427 189.459 66.7516V59.3949C188.885 59.5223 188.344 59.586 187.58 59.586C185.159 59.586 184.522 58.8853 184.522 57.3885V40.4459H189.459V33.2803H184.522V23.6306H184.491Z" fill="#141414"/>
        <path d="M151.975 32.3567C141.879 32.3567 134.841 39.2675 134.841 50.0637C134.841 60.7325 141.879 67.6433 151.975 67.6433C159.045 67.6433 164.682 64.7771 167.42 59.2675C167.739 58.6306 168.026 57.9618 168.248 57.2293L167.42 57.1656L159.14 56.5287C157.834 59.1401 155.287 60.5096 152.42 60.5096C147.389 60.5096 145 56.5924 144.618 52.707H167.42H169.108V50.0955C169.108 46.9427 168.503 44.1401 167.42 41.7516C164.777 35.828 159.14 32.3567 151.975 32.3567ZM144.618 46.6879C145.127 42.8981 147.548 39.5223 152.42 39.5223C156.911 39.5223 159.395 43.4395 159.713 46.6879H144.618Z" fill="#141414"/>
        <path d="M120.51 32.3567C117.707 32.3567 114.013 33.1529 110.669 37.5796C108.312 32.9618 103.886 32.3567 101.688 32.3567C97.8347 32.3567 94.5863 33.2166 91.5927 37.6433H91.4653V33.2803H82.4844V66.7516H91.8474V46.4331C91.8474 43.1847 93.2806 39.9363 97.1341 39.9363C101.051 39.9363 102.23 42.6115 102.23 46.1147V66.7516H111.593V45.9236C111.593 43.2484 113.344 39.9363 116.943 39.9363C120.51 39.9363 121.943 42.6115 121.943 45.2229V66.7834H131.306V42.7389C131.306 35.6688 126.242 32.3567 120.51 32.3567Z" fill="#141414"/>
        <path d="M66.21 32.3567C62.4202 32.3567 59.1081 33.5987 56.3055 37.6433H56.1782V33.2803H47.1973V66.7516H56.5922V47.7389C56.5922 43.1847 58.9489 39.9363 62.7068 39.9363C65.6368 39.9363 68.5667 41.5605 68.5667 46.3694V66.7516H77.9298V44.0127C77.9298 37.5796 74.2992 32.3567 66.21 32.3567Z" fill="#141414"/>
        <path d="M42.6433 33.2803H33.2803V66.7516H42.6433V33.2803Z" fill="#141414"/>
        <path d="M37.9619 17.3885C35.0638 17.3885 32.8345 19.8089 32.5479 22.3248V23.5032C32.8663 25.9236 35.0956 28.3439 37.9619 28.3439C40.9555 28.3439 43.4396 25.6688 43.4396 22.8025C43.4396 19.7771 40.7644 17.3885 37.9619 17.3885Z" fill="#75DFBC"/>
    </symbol>
</svg>